<?xml version="1.0" encoding="utf-8"?>
<!-- Generator: Adobe Illustrator 23.0.3, SVG Export Plug-In . SVG Version: 6.00 Build 0)  -->
<svg version="1.1" id="Calque_1" xmlns="http://www.w3.org/2000/svg" xmlns:xlink="http://www.w3.org/1999/xlink" x="0px" y="0px"
	 viewBox="0 0 500 300" style="enable-background:new 0 0 500 300;" xml:space="preserve">
<style type="text/css">
	.st0{fill:#3F3D56;}
	.st1{fill:#FFFFFF;}
	.st2{fill:#F5F5F5;}
	.st3{opacity:0.3;fill:#FFFFFF;enable-background:new    ;}
</style>
<g>
	<path class="st0" d="M57,38.8l103-23.3c4.2-1,8.4,1.7,9.4,5.9l35.4,156.4c1,4.2-1.7,8.4-5.9,9.4l-103,23.3c-4.2,1-8.4-1.7-9.4-5.9
		L51.1,48.2C50.1,43.9,52.8,39.7,57,38.8z"/>
	<circle class="st1" cx="61.2" cy="63.6" r="3.5"/>
	<circle class="st1" cx="64.7" cy="76.4" r="3.5"/>
	<circle class="st1" cx="87.5" cy="170.3" r="3.5"/>
	<circle class="st1" cx="91" cy="183.1" r="3.5"/>
	
		<rect x="89" y="88.4" transform="matrix(0.9753 -0.2207 0.2207 0.9753 -17.7657 30.0007)" class="st2" width="72.8" height="12.1"/>
	
		<rect x="153.4" y="86.5" transform="matrix(0.9753 -0.2207 0.2207 0.9753 -33.2385 51.5493)" class="st1" width="121.2" height="176"/>
	
		<rect x="278.1" y="58.3" transform="matrix(0.9753 -0.2207 0.2207 0.9753 -23.9346 78.3743)" class="st0" width="121.2" height="176"/>
	
		<rect x="161.2" y="107.7" transform="matrix(0.9753 -0.2207 0.2207 0.9753 -20.2287 46.4288)" class="st2" width="72.8" height="12.1"/>
	<rect x="154.6" y="136.4" transform="matrix(0.9753 -0.2207 0.2207 0.9753 -25.426 48.2314)" class="st2" width="97" height="3"/>
	<rect x="156.1" y="143.3" transform="matrix(0.9753 -0.2207 0.2207 0.9753 -26.911 48.7465)" class="st2" width="97" height="3"/>
	<rect x="157.7" y="150.2" transform="matrix(0.9753 -0.2207 0.2207 0.9753 -28.3959 49.2615)" class="st2" width="97" height="3"/>
	
		<rect x="159.9" y="162.7" transform="matrix(0.9753 -0.2207 0.2207 0.9753 -31.7203 44.4731)" class="st2" width="46.5" height="3"/>
	
		<rect x="161.4" y="168.8" transform="matrix(0.9753 -0.2207 0.2207 0.9753 -32.9478 45.7306)" class="st2" width="53.6" height="3"/>
	<rect x="162.4" y="170.9" transform="matrix(0.9753 -0.2207 0.2207 0.9753 -32.8508 50.8066)" class="st2" width="97" height="3"/>
	<rect x="163.9" y="177.8" transform="matrix(0.9753 -0.2207 0.2207 0.9753 -34.3358 51.3216)" class="st2" width="97" height="3"/>
	<rect x="165.6" y="185.5" transform="matrix(0.9753 -0.2207 0.2207 0.9753 -36.0782 51.0942)" class="st2" width="90" height="3"/>
	<rect x="167.1" y="191.6" transform="matrix(0.9753 -0.2207 0.2207 0.9753 -37.3057 52.3517)" class="st2" width="97" height="3"/>
	
		<rect x="169.2" y="203.6" transform="matrix(0.9753 -0.2207 0.2207 0.9753 -40.4829 47.9876)" class="st2" width="50.5" height="3"/>
	
		<rect x="299.1" y="182.2" transform="matrix(0.9753 -0.2207 0.2207 0.9753 -32.5047 76.4722)" class="st3" width="53.6" height="3"/>
	<rect x="300.2" y="184.3" transform="matrix(0.9753 -0.2207 0.2207 0.9753 -32.4078 81.5481)" class="st3" width="97" height="3"/>
	<rect x="301.7" y="191.2" transform="matrix(0.9753 -0.2207 0.2207 0.9753 -33.8927 82.0632)" class="st3" width="97" height="3"/>
	<rect x="303.4" y="198.8" transform="matrix(0.9753 -0.2207 0.2207 0.9753 -35.6352 81.8357)" class="st3" width="90" height="3"/>
	<rect x="304.8" y="205" transform="matrix(0.9753 -0.2207 0.2207 0.9753 -36.8626 83.0932)" class="st3" width="97" height="3"/>
	
		<rect x="211.4" y="206.1" transform="matrix(0.9753 -0.2207 0.2207 0.9753 -44.01 58.7171)" class="st2" width="58.6" height="40.4"/>
	
		<rect x="279.1" y="74.7" transform="matrix(0.9753 -0.2207 0.2207 0.9753 -13.3345 70.4174)" class="st3" width="58.6" height="40.4"/>
	
		<rect x="335.1" y="115.9" transform="matrix(0.9753 -0.2207 0.2207 0.9753 -21.0547 83.7895)" class="st3" width="58.6" height="40.4"/>
	<path class="st1" d="M312.3,112.8l103-23.3c4.2-1,8.4,1.7,9.4,5.9L460,251.8c1,4.2-1.7,8.4-5.9,9.4l-103,23.3
		c-4.2,1-8.4-1.7-9.4-5.9l-35.4-156.4C305.4,118,308.1,113.8,312.3,112.8z"/>
	<circle class="st1" cx="316.5" cy="137.6" r="3.5"/>
	<circle class="st1" cx="320" cy="150.4" r="3.5"/>
	<circle class="st1" cx="342.8" cy="244.3" r="3.5"/>
	<circle class="st1" cx="346.3" cy="257.1" r="3.5"/>
	
		<rect x="344.3" y="162.5" transform="matrix(0.9753 -0.2207 0.2207 0.9753 -27.8082 88.1792)" class="st2" width="72.8" height="12.1"/>
</g>
</svg>
